# Exported from Wings 3D 1.0.2
mtllib asteroid.mtl
o icosahedron1
#60 vertices, 62 faces
v -0.64512330 -1.04383143 1.02348518
v -1.17274631 -1.04383143 0.29727440
v -0.40916312 -1.51575180 0.29727440
v 1.42562303 0.53807800 0.48100009
v 0.89800001 0.53807800 1.20721087
v 1.27979161 -0.22550520 0.92982303
v 1.17274631 1.04383143 0.29727440
v 0.40916312 1.51575180 0.29727440
v 0.64512330 1.04383143 1.02348518
v -1.42562303 -0.53807800 -0.48100009
v -1.27979161 0.22550520 -0.92982303
v -0.89800001 -0.53807800 -1.20721087
v -1.27979161 0.22550520 0.92982303
v -1.42562303 -0.53807800 0.48100009
v -0.89800001 -0.53807800 1.20721087
v 0.87062850 -0.53807800 1.22709744
v 0.48883690 0.22550520 1.50448527
v 1.6916527e-2 -0.53807800 1.50448527
v -0.77403819 1.04383143 -0.92982303
v -0.15628640 1.51575180 -0.48100009
v 7.9673782e-2 1.04383143 -1.20721087
v -1.43607801 0.53807800 0.44882294
v -1.43607801 0.53807800 -0.44882294
v -1.58190943 -0.22550520 0.0000000e+0
v 1.12350521 -1.04383143 -0.44882294
v 1.12350521 -1.04383143 0.44882294
v 0.50575342 -1.51575180 0.0000000e+0
v 7.9673782e-2 1.04383143 1.20721087
v -0.15628640 1.51575180 0.48100009
v -0.77403819 1.04383143 0.92982303
v 1.43607801 -0.53807800 -0.44882294
v 1.58190943 0.22550520 0.0000000e+0
v 1.43607801 -0.53807800 0.44882294
v -1.17274631 -1.04383143 -0.29727440
v -0.64512330 -1.04383143 -1.02348518
v -0.40916312 -1.51575180 -0.29727440
v -1.6916527e-2 0.53807800 1.50448527
v -0.87062850 0.53807800 1.22709744
v -0.48883690 -0.22550520 1.50448527
v -0.87062850 0.53807800 -1.22709744
v -1.6916527e-2 0.53807800 -1.50448527
v -0.48883690 -0.22550520 -1.50448527
v -1.12350521 1.04383143 0.44882294
v -0.50575342 1.51575180 0.0000000e+0
v -1.12350521 1.04383143 -0.44882294
v 0.77403819 -1.04383143 0.92982303
v -7.9673782e-2 -1.04383143 1.20721087
v 0.15628640 -1.51575180 0.48100009
v 0.89800001 0.53807800 -1.20721087
v 1.42562303 0.53807800 -0.48100009
v 1.27979161 -0.22550520 -0.92982303
v 0.40916312 1.51575180 -0.29727440
v 1.17274631 1.04383143 -0.29727440
v 0.64512330 1.04383143 -1.02348518
v 1.6916527e-2 -0.53807800 -1.50448527
v 0.48883690 0.22550520 -1.50448527
v 0.87062850 -0.53807800 -1.22709744
v -7.9673782e-2 -1.04383143 -1.20721087
v 0.77403819 -1.04383143 -0.92982303
v 0.15628640 -1.51575180 -0.48100009
vn -0.42721691 -0.69125148 0.58280108
vn -0.68629405 -0.69125148 0.22621199
vn -0.31135409 -0.92297712 0.22621199
vn 0.87872146 0.30639666 0.36601869
vn 0.61964432 0.30639666 0.72260778
vn 0.80711430 -6.8543297e-2 0.58640287
vn 0.68629405 0.69125148 0.22621199
vn 0.31135409 0.92297712 0.22621199
vn 0.42721691 0.69125148 0.58280108
vn -0.87872146 -0.30639666 -0.36601869
vn -0.80711430 6.8543297e-2 -0.58640287
vn -0.61964432 -0.30639666 -0.72260778
vn -0.80711430 6.8543297e-2 0.58640287
vn -0.87872146 -0.30639666 0.36601869
vn -0.61964432 -0.30639666 0.72260778
vn 0.49576021 -0.30639666 0.81261486
vn 0.30829023 6.8543297e-2 0.94881977
vn 7.6564594e-2 -0.30639666 0.94881977
vn -0.42225948 0.69125148 -0.58640287
vn -0.11892668 0.92297712 -0.36601869
vn -3.0638631e-3 0.69125148 -0.72260778
vn -0.92604098 0.30639666 0.22038418
vn -0.92604098 0.30639666 -0.22038418
vn -0.99764814 -6.8543297e-2 2.9311308e-17
vn 0.68818762 -0.69125148 -0.22038418
vn 0.68818762 -0.69125148 0.22038418
vn 0.38485482 -0.92297712 -8.9587057e-18
vn -3.0638631e-3 0.69125148 0.72260778
vn -0.11892668 0.92297712 0.36601869
vn -0.42225948 0.69125148 0.58640287
vn 0.92604098 -0.30639666 -0.22038418
vn 0.99764814 6.8543297e-2 -9.0367542e-18
vn 0.92604098 -0.30639666 0.22038418
vn -0.68629405 -0.69125148 -0.22621199
vn -0.42721691 -0.69125148 -0.58280108
vn -0.31135409 -0.92297712 -0.22621199
vn -7.6564594e-2 0.30639666 0.94881977
vn -0.49576021 0.30639666 0.81261486
vn -0.30829023 -6.8543297e-2 0.94881977
vn -0.49576021 0.30639666 -0.81261486
vn -7.6564594e-2 0.30639666 -0.94881977
vn -0.30829023 -6.8543297e-2 -0.94881977
vn -0.68818762 0.69125148 0.22038418
vn -0.38485482 0.92297712 -1.4655654e-17
vn -0.68818762 0.69125148 -0.22038418
vn 0.42225948 -0.69125148 0.58640287
vn 3.0638631e-3 -0.69125148 0.72260778
vn 0.11892668 -0.92297712 0.36601869
vn 0.61964432 0.30639666 -0.72260778
vn 0.87872146 0.30639666 -0.36601869
vn 0.80711430 -6.8543297e-2 -0.58640287
vn 0.31135409 0.92297712 -0.22621199
vn 0.68629405 0.69125148 -0.22621199
vn 0.42721691 0.69125148 -0.58280108
vn 7.6564594e-2 -0.30639666 -0.94881977
vn 0.30829023 6.8543297e-2 -0.94881977
vn 0.49576021 -0.30639666 -0.81261486
vn 3.0638631e-3 -0.69125148 -0.72260778
vn 0.42225948 -0.69125148 -0.58640287
vn 0.11892668 -0.92297712 -0.36601869
g icosahedron1_default2
usemtl default2
f 1//1 15//15 14//14 2//2
f 2//2 3//3 1//1
f 2//2 34//34 36//36 3//3
f 3//3 48//48 47//47 1//1
f 4//4 7//7 9//9 5//5
f 5//5 6//6 4//4
f 5//5 17//17 16//16 6//6
f 6//6 33//33 32//32 4//4
f 7//7 53//53 52//52 8//8
f 8//8 9//9 7//7
f 8//8 29//29 28//28 9//9
f 9//9 28//28 37//37 17//17 5//5
f 10//10 24//24 23//23 11//11
f 11//11 12//12 10//10
f 11//11 40//40 42//42 12//12
f 12//12 35//35 34//34 10//10
f 13//13 22//22 24//24 14//14
f 14//14 15//15 13//13
f 14//14 24//24 10//10 34//34 2//2
f 15//15 39//39 38//38 13//13
f 16//16 46//46 26//26 33//33 6//6
f 17//17 18//18 16//16
f 17//17 37//37 39//39 18//18
f 18//18 47//47 46//46 16//16
f 19//19 45//45 44//44 20//20
f 20//20 21//21 19//19
f 20//20 52//52 54//54 21//21
f 21//21 41//41 40//40 19//19
f 22//22 43//43 45//45 23//23
f 23//23 24//24 22//22
f 23//23 45//45 19//19 40//40 11//11
f 25//25 31//31 33//33 26//26
f 26//26 27//27 25//25
f 26//26 46//46 48//48 27//27
f 27//27 60//60 59//59 25//25
f 29//29 30//30 28//28
f 29//29 44//44 43//43 30//30
f 30//30 38//38 37//37 28//28
f 31//31 51//51 50//50 32//32
f 32//32 33//33 31//31
f 32//32 50//50 53//53 7//7 4//4
f 35//35 36//36 34//34
f 35//35 58//58 60//60 36//36
f 36//36 60//60 27//27 48//48 3//3
f 38//38 30//30 43//43 22//22 13//13
f 38//38 39//39 37//37
f 41//41 42//42 40//40
f 41//41 56//56 55//55 42//42
f 42//42 55//55 58//58 35//35 12//12
f 44//44 29//29 8//8 52//52 20//20
f 44//44 45//45 43//43
f 47//47 18//18 39//39 15//15 1//1
f 47//47 48//48 46//46
f 49//49 54//54 53//53 50//50
f 50//50 51//51 49//49
f 51//51 57//57 56//56 49//49
f 53//53 54//54 52//52
f 54//54 49//49 56//56 41//41 21//21
f 56//56 57//57 55//55
f 57//57 59//59 58//58 55//55
f 59//59 57//57 51//51 31//31 25//25
f 59//59 60//60 58//58
