# Exported from Wings 3D 1.0.2
mtllib ship.mtl
o tetrahedron6
#92 vertices, 90 faces
v -0.15606276 -0.26399109 0.69779172
v 0.15606276 -0.26399109 0.69779172
v -0.68233674 -0.26399109 -0.21374154
v -0.52627398 -0.26399109 -0.48405018
v 0.52627398 -0.26399109 -0.48405018
v 0.68233674 -0.26399109 -0.21374154
v 0.14791568 1.66295547 8.5399160e-2
v -4.5315225e-18 1.66295547 -0.17079832
v -0.14791568 1.66295547 8.5399160e-2
v 0.74141917 3.6587883e-2 -0.50842020
v 0.32410081 1.35366558 -0.26894895
v 0.39496703 1.35366558 -0.14620506
v 0.81101439 3.6587883e-2 -0.38787773
v -0.74141917 3.6587883e-2 -0.50842020
v -0.81101439 3.6587883e-2 -0.38787773
v -0.39496703 1.35366558 -0.14620506
v -0.32410081 1.35366558 -0.26894895
v 5.0273627e-2 1.98403844 2.9025492e-2
v -4.6259293e-18 1.98403844 -5.8050984e-2
v -5.0273627e-2 1.98403844 2.9025492e-2
v 6.9595223e-2 3.6587883e-2 0.89629793
v 7.0866219e-2 1.35366558 0.41515401
v -7.0866219e-2 1.35366558 0.41515401
v -6.9595223e-2 3.6587883e-2 0.89629793
v -0.34410625 -1.9658288e-2 0.19866984
v 0.34410625 -1.9658288e-2 0.19866984
v 0.0000000e+0 -1.9658288e-2 -0.39733968
v 0.49185837 0.55095074 -6.5831161e-2
v 0.18891773 0.55095074 0.45887742
v 0.63160731 -0.53563836 -0.36465865
v 0.0000000e+0 -0.53563836 0.72931730
v -0.30294064 0.55095074 -0.39304626
v 0.30294064 0.55095074 -0.39304626
v -0.18891773 0.55095074 0.45887742
v -0.49185837 0.55095074 -6.5831161e-2
v -0.63160731 -0.53563836 -0.36465865
v 8.5244829e-2 1.86043483 -4.9216125e-2
v -8.5244829e-2 1.86043483 -4.9216125e-2
v -1.3877788e-17 1.86043483 9.8432249e-2
v 0.53649752 0.70188771 -0.41922585
v 0.75665146 -0.21321781 -0.54468071
v 0.30264232 1.59091516 -0.17473063
v 0.19269973 1.56483709 -0.22238517
v 0.63130899 0.70188771 -0.25500756
v 0.28894107 1.56483709 -5.5690273e-2
v 0.86516418 -0.18713973 -0.49950277
v 0.85003306 -0.21321781 -0.38293903
v -0.86516418 -0.18713973 -0.49950277
v -0.75665146 -0.21321781 -0.54468071
v -0.63130899 0.70188771 -0.25500756
v -0.85003306 -0.21321781 -0.38293903
v -0.30264232 1.59091516 -0.17473063
v -0.28894107 1.56483709 -5.5690273e-2
v -0.53649752 0.70188771 -0.41922585
v -0.19269973 1.56483709 -0.22238517
v 4.8478140e-2 2.00374214 -2.7988867e-2
v 8.0796900e-2 1.92774214 4.6648112e-2
v -4.8478140e-2 2.00374214 -2.7988867e-2
v -3.4694470e-18 1.92774214 -9.3296224e-2
v -1.2721305e-17 2.00374214 5.5977734e-2
v -8.0796900e-2 1.92774214 4.6648112e-2
v 9.4811473e-2 0.70188771 0.67423340
v 9.3381602e-2 -0.21321781 0.92761974
v -1.2143064e-17 1.59091516 0.34946125
v 9.6241344e-2 1.56483709 0.27807544
v -9.4811473e-2 0.70188771 0.67423340
v -9.6241344e-2 1.56483709 0.27807544
v -1.7347235e-18 -0.18713973 0.99900555
v -9.3381602e-2 -0.21321781 0.92761974
v -0.37642501 0.24591557 0.21732908
v 0.0000000e+0 -0.12299772 -8.6039415e-14
v 0.37642501 0.24591557 0.21732908
v 0.0000000e+0 0.24591557 -0.43465817
v 0.60451056 0.71058041 -0.34901434
v -0.60451056 0.71058041 -0.34901434
v -9.2518585e-18 2.02907547 2.5905204e-16
v -6.9388939e-18 0.71058041 0.69802867
v 0.45887368 0.67580964 -0.41090265
v 0.14706675 1.86117957 -8.4909030e-2
v 0.58528898 0.67580964 -0.19194494
v 0.89709590 -0.50956029 -0.51793856
v -0.89709590 -0.50956029 -0.51793856
v -0.58528898 0.67580964 -0.19194494
v -0.14706675 1.86117957 -8.4909030e-2
v -0.45887368 0.67580964 -0.41090265
v 6.4637520e-2 1.92774214 -3.7318489e-2
v -6.4637520e-2 1.92774214 -3.7318489e-2
v -1.3877788e-17 1.92774214 7.4636979e-2
v 0.12641530 0.67580964 0.60284759
v -1.3877788e-17 1.86117957 0.16981806
v -0.12641530 0.67580964 0.60284759
v 0.0000000e+0 -0.50956029 1.03587712
vn -0.94640365 -0.27409938 0.17084985
vn 0.94640365 -0.27409938 0.17084985
vn -0.62116213 -0.27409938 0.73418468
vn 0.32524152 -0.27409938 -0.90503452
vn -0.32524152 -0.27409938 -0.90503452
vn 0.62116213 -0.27409938 0.73418468
vn 0.82850461 0.29115887 0.47833736
vn -6.8416525e-17 0.29115887 -0.95667472
vn -0.82850461 0.29115887 0.47833736
vn 0.32108589 0.18785621 -0.92823160
vn 0.28196214 0.33598074 -0.89867363
vn 0.91925526 0.33598074 0.20515044
vn 0.96441509 0.18785621 0.18604726
vn -0.32108589 0.18785621 -0.92823160
vn -0.96441509 0.18785621 0.18604726
vn -0.91925526 0.33598074 0.20515044
vn -0.28196214 0.33598074 -0.89867363
vn 0.72077306 0.55435992 0.41613852
vn 4.2577654e-16 0.55435992 -0.83227704
vn -0.72077306 0.55435992 0.41613852
vn 0.64332920 0.18785621 0.74218434
vn 0.63729312 0.33598074 0.69352319
vn -0.63729312 0.33598074 0.69352319
vn -0.64332920 0.18785621 0.74218434
vn -0.77931249 -0.43615294 0.44993628
vn 0.77931249 -0.43615294 0.44993628
vn 0.0000000e+0 -0.43615294 -0.89987255
vn 0.79354528 0.10601144 0.59920569
vn 0.91569999 0.10601144 0.38762753
vn -0.10139565 -0.99312230 5.8540806e-2
vn 0.0000000e+0 -0.99312230 -0.11708161
vn 0.12215471 0.10601144 -0.98683322
vn -0.12215471 0.10601144 -0.98683322
vn -0.91569999 0.10601144 0.38762753
vn -0.79354528 0.10601144 0.59920569
vn 0.10139565 -0.99312230 5.8540806e-2
vn 0.74921460 0.50156752 -0.43255925
vn -0.74921460 0.50156752 -0.43255925
vn 3.9077102e-17 0.50156752 0.86511850
vn 0.29201062 0.25978286 -0.92045786
vn -7.0008960e-2 -1.8222127e-2 -0.99737992
vn 0.77704417 0.44151611 -0.44862666
vn -3.5439837e-2 0.31096399 -0.94976071
vn 0.94314520 0.25978286 0.20734031
vn 0.80479699 0.31096399 0.50557216
vn 0.84058967 0.24057986 -0.48531467
vn 0.82875187 -1.8222127e-2 0.55931950
vn -0.84058967 0.24057986 -0.48531467
vn 7.0008960e-2 -1.8222127e-2 -0.99737992
vn -0.94314520 0.25978286 0.20734031
vn -0.82875187 -1.8222127e-2 0.55931950
vn -0.77704417 0.44151611 -0.44862666
vn -0.80479699 0.31096399 0.50557216
vn -0.29201062 0.25978286 -0.92045786
vn 3.5439837e-2 0.31096399 -0.94976071
vn 0.62341372 0.69412327 -0.35992808
vn 0.81243534 0.34631165 0.46905976
vn -0.62341372 0.69412327 -0.35992808
vn 2.0183822e-16 0.34631165 -0.93811952
vn -1.2064768e-16 0.69412327 0.71985616
vn -0.81243534 0.34631165 0.46905976
vn 0.65113458 0.25978286 0.71311754
vn 0.89876083 -1.8222127e-2 0.43806042
vn -1.2779937e-16 0.44151611 0.89725332
vn 0.84023682 0.31096399 0.44418856
vn -0.65113458 0.25978286 0.71311754
vn -0.84023682 0.31096399 0.44418856
vn -2.8918151e-16 0.24057986 0.97062935
vn -0.89876083 -1.8222127e-2 0.43806042
vn -0.86277891 8.6506628e-2 0.49812564
vn 0.0000000e+0 -1.00000000 -2.4843730e-14
vn 0.86277891 8.6506628e-2 0.49812564
vn 0.0000000e+0 8.6506628e-2 -0.99625128
vn 0.81348551 0.34300889 -0.46966608
vn -0.81348551 0.34300889 -0.46966608
vn 0.0000000e+0 1.00000000 3.9812997e-16
vn -5.8322252e-17 0.34300889 0.93933216
vn -0.14950556 0.12656040 -0.98062763
vn 0.65220972 0.65789814 -0.37655346
vn 0.77449566 0.12656040 0.61978943
vn 0.83739631 -0.25499653 -0.48347098
vn -0.83739631 -0.25499653 -0.48347098
vn -0.77449566 0.12656040 0.61978943
vn -0.65220972 0.65789814 -0.37655346
vn 0.14950556 0.12656040 -0.98062763
vn 0.82318553 0.31062428 -0.47526639
vn -0.82318553 0.31062428 -0.47526639
vn -9.0519409e-17 0.31062428 0.95053278
vn 0.92400122 0.12656040 0.36083820
vn -1.6590598e-16 0.65789814 0.75310692
vn -0.92400122 0.12656040 0.36083820
vn -3.4551737e-16 -0.25499653 0.96694197
g tetrahedron6_default
usemtl default
f 1//1 34//34 70//70 25//25
f 2//2 31//31 71//71 26//26
f 3//3 25//25 70//70 35//35
f 3//3 36//36 71//71 25//25
f 4//4 32//32 73//73 27//27
f 5//5 27//27 73//73 33//33
f 5//5 30//30 71//71 27//27
f 6//6 26//26 71//71 30//30
f 6//6 28//28 72//72 26//26
f 7//7 29//29 72//72 28//28
f 7//7 45//45 79//79 37//37
f 7//7 57//57 88//88 39//39
f 8//8 33//33 73//73 32//32
f 8//8 37//37 79//79 43//43
f 8//8 55//55 84//84 38//38
f 9//9 35//35 70//70 34//34
f 9//9 38//38 84//84 53//53
f 9//9 39//39 88//88 61//61
f 10//10 40//40 74//74 46//46
f 10//10 41//41 78//78 40//40
f 11//11 42//42 74//74 40//40
f 11//11 43//43 79//79 42//42
f 12//12 44//44 74//74 42//42
f 12//12 45//45 80//80 44//44
f 13//13 46//46 74//74 44//44
f 14//14 48//48 75//75 54//54
f 15//15 50//50 75//75 48//48
f 15//15 51//51 83//83 50//50
f 16//16 52//52 75//75 50//50
f 16//16 53//53 84//84 52//52
f 17//17 54//54 75//75 52//52
f 17//17 55//55 85//85 54//54
f 21//21 62//62 77//77 68//68
f 21//21 63//63 89//89 62//62
f 22//22 64//64 77//77 62//62
f 22//22 65//65 90//90 64//64
f 23//23 66//66 77//77 64//64
f 23//23 67//67 91//91 66//66
f 24//24 68//68 77//77 66//66
f 25//25 71//71 31//31 1//1
f 26//26 72//72 29//29 2//2
f 27//27 71//71 36//36 4//4
f 28//28 80//80 45//45 7//7
f 29//29 89//89 63//63 2//2
f 32//32 85//85 55//55 8//8
f 33//33 78//78 41//41 5//5
f 34//34 91//91 67//67 9//9
f 35//35 83//83 51//51 3//3
f 37//37 86//86 57//57 7//7
f 38//38 87//87 59//59 8//8
f 39//39 90//90 65//65 7//7
f 40//40 78//78 43//43 11//11
f 42//42 79//79 45//45 12//12
f 43//43 78//78 33//33 8//8
f 44//44 80//80 47//47 13//13
f 47//47 80//80 28//28 6//6
f 49//49 85//85 32//32 4//4
f 50//50 83//83 53//53 16//16
f 52//52 84//84 55//55 17//17
f 53//53 83//83 35//35 9//9
f 54//54 85//85 49//49 14//14
f 59//59 86//86 37//37 8//8
f 61//61 87//87 38//38 9//9
f 62//62 89//89 65//65 22//22
f 64//64 90//90 67//67 23//23
f 65//65 89//89 29//29 7//7
f 66//66 91//91 69//69 24//24
f 67//67 90//90 39//39 9//9
f 69//69 91//91 34//34 1//1
g tetrahedron6_tip
usemtl tip
f 18//18 56//56 76//76 60//60
f 18//18 57//57 86//86 56//56
f 19//19 58//58 76//76 56//56
f 19//19 59//59 87//87 58//58
f 20//20 60//60 76//76 58//58
f 20//20 61//61 88//88 60//60
f 56//56 86//86 59//59 19//19
f 58//58 87//87 61//61 20//20
f 60//60 88//88 57//57 18//18
g tetrahedron6_wings
usemtl wings
f 13//13 47//47 81//81 46//46
f 14//14 49//49 82//82 48//48
f 24//24 69//69 92//92 68//68
f 30//30 81//81 47//47 6//6
f 31//31 92//92 69//69 1//1
f 36//36 82//82 49//49 4//4
f 41//41 81//81 30//30 5//5
f 46//46 81//81 41//41 10//10
f 48//48 82//82 51//51 15//15
f 51//51 82//82 36//36 3//3
f 63//63 92//92 31//31 2//2
f 68//68 92//92 63//63 21//21
